# xmcd
#
# Track frame offsets:
#   150
#   15488
#   43763
#   63253
#   79496
#   97648
#   110067
#   121467
#   138968
#   156295
#   171361
#   187644
#   205455
#   221438
#   244903
#   265016
#   283044
#   305620
#
# Disc length: 4410 seconds
#
# Revision: 0
# Processed by: cddbd v1.5.2PL0 Copyright (c) Steve Scherf et al.
# Submitted via: Click'N Design 3D 5.1
#
DISCID=fd113812
DTITLE=Big and Rich Hits - Big and Rich
DYEAR=2008
DGENRE=Country
TTITLE0=01- Save A Horse, Ride A Cowboy
TTITLE1=02- 8th Of November
TTITLE2=03- Holy Water
TTITLE3=04- Lost In This Moment
TTITLE4=05- Big Time
TTITLE5=06- Our America (With Gretchen Wilson and Cowboy Tro
TTITLE6=07- You Never Stop Loving Somebody
TTITLE7=08- Between Raising Hell And Amazing Grace
TTITLE8=09- Six Foot Town
TTITLE9=10- Eternity
TTITLE10=11- Blow My Mind
TTITLE11=12- Wild West Show
TTITLE12=13- Coming To Your City
TTITLE13=14- Deadwood Mountain
TTITLE14=15- Faster Then Angels Fly
TTITLE15=16- I Pray For You
TTITLE16=17- Leap Of Faith
TTITLE17=18- Live This Life
EXTD=
EXTT0=
EXTT1=
EXTT2=
EXTT3=
EXTT4=
EXTT5=
EXTT6=
EXTT7=
EXTT8=
EXTT9=
EXTT10=
EXTT11=
EXTT12=
EXTT13=
EXTT14=
EXTT15=
EXTT16=
EXTT17=
PLAYORDER=
